<mxfile host="Electron" agent="Mozilla/5.0 (Macintosh; Intel Mac OS X 10_15_7) AppleWebKit/537.36 (KHTML, like Gecko) draw.io/26.0.16 Chrome/132.0.6834.196 Electron/34.2.0 Safari/537.36" version="26.0.16">
  <diagram name="Page-1" id="jIqfP30wYk0lKUhWVmis">
    <mxGraphModel dx="1012" dy="730" grid="1" gridSize="10" guides="1" tooltips="1" connect="1" arrows="1" fold="1" page="1" pageScale="1" pageWidth="850" pageHeight="1100" math="0" shadow="0">
      <root>
        <mxCell id="0" />
        <mxCell id="1" parent="0" />
        <mxCell id="lh9dLDWLIg6nByd8DA35-7" style="edgeStyle=orthogonalEdgeStyle;rounded=0;orthogonalLoop=1;jettySize=auto;html=1;exitX=0;exitY=0.75;exitDx=0;exitDy=0;" edge="1" parent="1" source="Am7dgRR0ZduwFDilZqd4-1" target="Am7dgRR0ZduwFDilZqd4-4">
          <mxGeometry relative="1" as="geometry" />
        </mxCell>
        <mxCell id="lh9dLDWLIg6nByd8DA35-8" style="edgeStyle=orthogonalEdgeStyle;rounded=0;orthogonalLoop=1;jettySize=auto;html=1;exitX=0;exitY=0.5;exitDx=0;exitDy=0;entryX=0.25;entryY=0;entryDx=0;entryDy=0;" edge="1" parent="1" source="Am7dgRR0ZduwFDilZqd4-1" target="Am7dgRR0ZduwFDilZqd4-4">
          <mxGeometry relative="1" as="geometry" />
        </mxCell>
        <mxCell id="lh9dLDWLIg6nByd8DA35-11" style="edgeStyle=orthogonalEdgeStyle;rounded=0;orthogonalLoop=1;jettySize=auto;html=1;exitX=1;exitY=0.75;exitDx=0;exitDy=0;" edge="1" parent="1" source="Am7dgRR0ZduwFDilZqd4-1" target="Am7dgRR0ZduwFDilZqd4-2">
          <mxGeometry relative="1" as="geometry" />
        </mxCell>
        <mxCell id="lh9dLDWLIg6nByd8DA35-12" style="edgeStyle=orthogonalEdgeStyle;rounded=0;orthogonalLoop=1;jettySize=auto;html=1;exitX=1;exitY=0.5;exitDx=0;exitDy=0;entryX=0.75;entryY=0;entryDx=0;entryDy=0;" edge="1" parent="1" source="Am7dgRR0ZduwFDilZqd4-1" target="Am7dgRR0ZduwFDilZqd4-2">
          <mxGeometry relative="1" as="geometry" />
        </mxCell>
        <mxCell id="lh9dLDWLIg6nByd8DA35-15" style="edgeStyle=orthogonalEdgeStyle;rounded=0;orthogonalLoop=1;jettySize=auto;html=1;exitX=0.5;exitY=0;exitDx=0;exitDy=0;entryX=0.5;entryY=1;entryDx=0;entryDy=0;" edge="1" parent="1" source="Am7dgRR0ZduwFDilZqd4-1" target="Am7dgRR0ZduwFDilZqd4-7">
          <mxGeometry relative="1" as="geometry" />
        </mxCell>
        <mxCell id="lh9dLDWLIg6nByd8DA35-16" style="edgeStyle=orthogonalEdgeStyle;rounded=0;orthogonalLoop=1;jettySize=auto;html=1;exitX=0.75;exitY=0;exitDx=0;exitDy=0;entryX=1;entryY=0.5;entryDx=0;entryDy=0;" edge="1" parent="1" source="Am7dgRR0ZduwFDilZqd4-1" target="Am7dgRR0ZduwFDilZqd4-7">
          <mxGeometry relative="1" as="geometry">
            <Array as="points">
              <mxPoint x="470" y="80" />
            </Array>
          </mxGeometry>
        </mxCell>
        <mxCell id="lh9dLDWLIg6nByd8DA35-17" style="edgeStyle=orthogonalEdgeStyle;rounded=0;orthogonalLoop=1;jettySize=auto;html=1;exitX=0.25;exitY=0;exitDx=0;exitDy=0;entryX=0;entryY=0.5;entryDx=0;entryDy=0;" edge="1" parent="1" source="Am7dgRR0ZduwFDilZqd4-1" target="Am7dgRR0ZduwFDilZqd4-7">
          <mxGeometry relative="1" as="geometry">
            <Array as="points">
              <mxPoint x="370" y="80" />
            </Array>
          </mxGeometry>
        </mxCell>
        <mxCell id="Am7dgRR0ZduwFDilZqd4-1" value="&lt;font style=&quot;font-size: 20px;&quot;&gt;MSP430FR2355&lt;/font&gt;" style="whiteSpace=wrap;html=1;aspect=fixed;" parent="1" vertex="1">
          <mxGeometry x="320" y="200" width="200" height="200" as="geometry" />
        </mxCell>
        <mxCell id="lh9dLDWLIg6nByd8DA35-19" style="edgeStyle=orthogonalEdgeStyle;rounded=0;orthogonalLoop=1;jettySize=auto;html=1;exitX=1;exitY=0.25;exitDx=0;exitDy=0;" edge="1" parent="1" source="Am7dgRR0ZduwFDilZqd4-2">
          <mxGeometry relative="1" as="geometry">
            <mxPoint x="720" y="470" as="targetPoint" />
          </mxGeometry>
        </mxCell>
        <mxCell id="lh9dLDWLIg6nByd8DA35-22" style="edgeStyle=orthogonalEdgeStyle;rounded=0;orthogonalLoop=1;jettySize=auto;html=1;exitX=1;exitY=0.75;exitDx=0;exitDy=0;" edge="1" parent="1" source="Am7dgRR0ZduwFDilZqd4-2">
          <mxGeometry relative="1" as="geometry">
            <mxPoint x="720" y="610" as="targetPoint" />
          </mxGeometry>
        </mxCell>
        <mxCell id="lh9dLDWLIg6nByd8DA35-36" style="edgeStyle=orthogonalEdgeStyle;rounded=0;orthogonalLoop=1;jettySize=auto;html=1;exitX=0.82;exitY=1;exitDx=0;exitDy=0;exitPerimeter=0;" edge="1" parent="1" source="Am7dgRR0ZduwFDilZqd4-2" target="Am7dgRR0ZduwFDilZqd4-5">
          <mxGeometry relative="1" as="geometry">
            <Array as="points">
              <mxPoint x="630" y="600" />
              <mxPoint x="630" y="640" />
              <mxPoint x="640" y="640" />
            </Array>
          </mxGeometry>
        </mxCell>
        <mxCell id="Am7dgRR0ZduwFDilZqd4-2" value="MSP430FR2310" style="whiteSpace=wrap;html=1;aspect=fixed;points=[[0,0,0,0,0],[0,0.25,0,0,0],[0,0.5,0,0,0],[0,0.75,0,0,0],[0,1,0,0,0],[0.09,1,0,0,0],[0.18,1,0,0,0],[0.25,0,0,0,0],[0.25,1,0,0,0],[0.27,1,0,0,0],[0.36,1,0,0,0],[0.45,1,0,0,0],[0.5,0,0,0,0],[0.5,1,0,0,0],[0.55,1,0,0,0],[0.64,1,0,0,0],[0.73,1,0,0,0],[0.75,0,0,0,0],[0.75,1,0,0,0],[0.82,1,0,0,0],[0.91,1,0,0,0],[1,0,0,0,0],[1,0.25,0,0,0],[1,0.5,0,0,0],[1,0.75,0,0,0],[1,1,0,0,0]];" parent="1" vertex="1">
          <mxGeometry x="520" y="480" width="120" height="120" as="geometry" />
        </mxCell>
        <mxCell id="lh9dLDWLIg6nByd8DA35-20" style="edgeStyle=orthogonalEdgeStyle;rounded=0;orthogonalLoop=1;jettySize=auto;html=1;exitX=0;exitY=0.25;exitDx=0;exitDy=0;" edge="1" parent="1" source="Am7dgRR0ZduwFDilZqd4-4">
          <mxGeometry relative="1" as="geometry">
            <mxPoint x="120" y="470" as="targetPoint" />
          </mxGeometry>
        </mxCell>
        <mxCell id="lh9dLDWLIg6nByd8DA35-21" style="edgeStyle=orthogonalEdgeStyle;rounded=0;orthogonalLoop=1;jettySize=auto;html=1;exitX=0;exitY=0.75;exitDx=0;exitDy=0;" edge="1" parent="1" source="Am7dgRR0ZduwFDilZqd4-4">
          <mxGeometry relative="1" as="geometry">
            <mxPoint x="120" y="610" as="targetPoint" />
          </mxGeometry>
        </mxCell>
        <mxCell id="lh9dLDWLIg6nByd8DA35-40" style="edgeStyle=orthogonalEdgeStyle;rounded=0;orthogonalLoop=1;jettySize=auto;html=1;exitX=0.09;exitY=1;exitDx=0;exitDy=0;exitPerimeter=0;" edge="1" parent="1" source="Am7dgRR0ZduwFDilZqd4-4" target="lh9dLDWLIg6nByd8DA35-1">
          <mxGeometry relative="1" as="geometry" />
        </mxCell>
        <mxCell id="Am7dgRR0ZduwFDilZqd4-4" value="MSP430FR2310" style="whiteSpace=wrap;html=1;aspect=fixed;points=[[0,0,0,0,0],[0,0.25,0,0,0],[0,0.5,0,0,0],[0,0.75,0,0,0],[0,1,0,0,0],[0.09,1,0,0,0],[0.18,1,0,0,0],[0.25,0,0,0,0],[0.25,1,0,0,0],[0.27,1,0,0,0],[0.36,1,0,0,0],[0.45,1,0,0,0],[0.5,0,0,0,0],[0.5,1,0,0,0],[0.55,1,0,0,0],[0.64,1,0,0,0],[0.73,1,0,0,0],[0.75,0,0,0,0],[0.75,1,0,0,0],[0.82,1,0,0,0],[0.91,1,0,0,0],[1,0,0,0,0],[1,0.25,0,0,0],[1,0.5,0,0,0],[1,0.75,0,0,0],[1,1,0,0,0]];" parent="1" vertex="1">
          <mxGeometry x="200" y="480" width="120" height="120" as="geometry" />
        </mxCell>
        <mxCell id="lh9dLDWLIg6nByd8DA35-37" style="edgeStyle=orthogonalEdgeStyle;rounded=0;orthogonalLoop=1;jettySize=auto;html=1;exitX=0.5;exitY=1;exitDx=0;exitDy=0;exitPerimeter=0;" edge="1" parent="1" source="Am7dgRR0ZduwFDilZqd4-5">
          <mxGeometry relative="1" as="geometry">
            <mxPoint x="640" y="770" as="targetPoint" />
          </mxGeometry>
        </mxCell>
        <mxCell id="Am7dgRR0ZduwFDilZqd4-5" value="&lt;font style=&quot;font-size: 18px;&quot;&gt;LCD Display&lt;/font&gt;" style="rounded=0;whiteSpace=wrap;html=1;points=[[0,0,0,0,0],[0,0.25,0,0,0],[0,0.5,0,0,0],[0,0.75,0,0,0],[0,1,0,0,0],[0.06,0,0,0,0],[0.13,0,0,0,0],[0.19,0,0,0,0],[0.25,0,0,0,0],[0.25,1,0,0,0],[0.31,0,0,0,0],[0.38,0,0,0,0],[0.44,0,0,0,0],[0.5,0,0,0,0],[0.5,1,0,0,0],[0.56,0,0,0,0],[0.63,0,0,0,0],[0.69,0,0,0,0],[0.75,0,0,0,0],[0.75,1,0,0,0],[0.81,0,0,0,0],[0.88,0,0,0,0],[0.94,0,0,0,0],[1,0,0,0,0],[1,0.25,0,0,0],[1,0.5,0,0,0],[1,0.75,0,0,0],[1,1,0,0,0]];" parent="1" vertex="1">
          <mxGeometry x="480" y="680" width="320" height="50" as="geometry" />
        </mxCell>
        <mxCell id="lh9dLDWLIg6nByd8DA35-49" style="edgeStyle=orthogonalEdgeStyle;rounded=0;orthogonalLoop=1;jettySize=auto;html=1;exitX=0.5;exitY=0;exitDx=0;exitDy=0;" edge="1" parent="1" source="Am7dgRR0ZduwFDilZqd4-7">
          <mxGeometry relative="1" as="geometry">
            <mxPoint x="500" y="90" as="targetPoint" />
            <Array as="points">
              <mxPoint x="420" y="20" />
              <mxPoint x="500" y="20" />
              <mxPoint x="500" y="80" />
            </Array>
          </mxGeometry>
        </mxCell>
        <mxCell id="Am7dgRR0ZduwFDilZqd4-7" value="&lt;font style=&quot;font-size: 14px;&quot;&gt;RGB LED&lt;/font&gt;" style="ellipse;whiteSpace=wrap;html=1;aspect=fixed;" parent="1" vertex="1">
          <mxGeometry x="380" y="40" width="80" height="80" as="geometry" />
        </mxCell>
        <mxCell id="lh9dLDWLIg6nByd8DA35-47" style="edgeStyle=orthogonalEdgeStyle;rounded=0;orthogonalLoop=1;jettySize=auto;html=1;exitX=0.5;exitY=1;exitDx=0;exitDy=0;exitPerimeter=0;" edge="1" parent="1" source="lh9dLDWLIg6nByd8DA35-1">
          <mxGeometry relative="1" as="geometry">
            <mxPoint x="200" y="770" as="targetPoint" />
          </mxGeometry>
        </mxCell>
        <mxCell id="lh9dLDWLIg6nByd8DA35-1" value="&lt;font style=&quot;font-size: 18px;&quot;&gt;LED Array&lt;/font&gt;" style="rounded=0;whiteSpace=wrap;html=1;points=[[0,0,0,0,0],[0,0.25,0,0,0],[0,0.5,0,0,0],[0,0.75,0,0,0],[0,1,0,0,0],[0.06,0,0,0,0],[0.13,0,0,0,0],[0.19,0,0,0,0],[0.25,0,0,0,0],[0.25,1,0,0,0],[0.31,0,0,0,0],[0.38,0,0,0,0],[0.44,0,0,0,0],[0.5,0,0,0,0],[0.5,1,0,0,0],[0.56,0,0,0,0],[0.63,0,0,0,0],[0.69,0,0,0,0],[0.75,0,0,0,0],[0.75,1,0,0,0],[0.81,0,0,0,0],[0.88,0,0,0,0],[0.94,0,0,0,0],[1,0,0,0,0],[1,0.25,0,0,0],[1,0.5,0,0,0],[1,0.75,0,0,0],[1,1,0,0,0]];" vertex="1" parent="1">
          <mxGeometry x="40" y="680" width="320" height="50" as="geometry" />
        </mxCell>
        <mxCell id="lh9dLDWLIg6nByd8DA35-31" style="edgeStyle=orthogonalEdgeStyle;rounded=0;orthogonalLoop=1;jettySize=auto;html=1;exitX=0.09;exitY=1;exitDx=0;exitDy=0;exitPerimeter=0;entryX=0.19;entryY=0;entryDx=0;entryDy=0;entryPerimeter=0;" edge="1" parent="1" source="Am7dgRR0ZduwFDilZqd4-2" target="Am7dgRR0ZduwFDilZqd4-5">
          <mxGeometry relative="1" as="geometry" />
        </mxCell>
        <mxCell id="lh9dLDWLIg6nByd8DA35-32" style="edgeStyle=orthogonalEdgeStyle;rounded=0;orthogonalLoop=1;jettySize=auto;html=1;exitX=0.27;exitY=1;exitDx=0;exitDy=0;exitPerimeter=0;entryX=0.25;entryY=0;entryDx=0;entryDy=0;entryPerimeter=0;" edge="1" parent="1" source="Am7dgRR0ZduwFDilZqd4-2" target="Am7dgRR0ZduwFDilZqd4-5">
          <mxGeometry relative="1" as="geometry" />
        </mxCell>
        <mxCell id="lh9dLDWLIg6nByd8DA35-33" style="edgeStyle=orthogonalEdgeStyle;rounded=0;orthogonalLoop=1;jettySize=auto;html=1;exitX=0.45;exitY=1;exitDx=0;exitDy=0;exitPerimeter=0;entryX=0.31;entryY=0;entryDx=0;entryDy=0;entryPerimeter=0;" edge="1" parent="1" source="Am7dgRR0ZduwFDilZqd4-2" target="Am7dgRR0ZduwFDilZqd4-5">
          <mxGeometry relative="1" as="geometry" />
        </mxCell>
        <mxCell id="lh9dLDWLIg6nByd8DA35-34" style="edgeStyle=orthogonalEdgeStyle;rounded=0;orthogonalLoop=1;jettySize=auto;html=1;exitX=0.64;exitY=1;exitDx=0;exitDy=0;exitPerimeter=0;entryX=0.38;entryY=0;entryDx=0;entryDy=0;entryPerimeter=0;" edge="1" parent="1" source="Am7dgRR0ZduwFDilZqd4-2" target="Am7dgRR0ZduwFDilZqd4-5">
          <mxGeometry relative="1" as="geometry">
            <Array as="points">
              <mxPoint x="590" y="600" />
              <mxPoint x="590" y="640" />
              <mxPoint x="602" y="640" />
            </Array>
          </mxGeometry>
        </mxCell>
        <mxCell id="lh9dLDWLIg6nByd8DA35-35" style="edgeStyle=orthogonalEdgeStyle;rounded=0;orthogonalLoop=1;jettySize=auto;html=1;exitX=0.73;exitY=1;exitDx=0;exitDy=0;exitPerimeter=0;entryX=0.44;entryY=0;entryDx=0;entryDy=0;entryPerimeter=0;" edge="1" parent="1" source="Am7dgRR0ZduwFDilZqd4-2" target="Am7dgRR0ZduwFDilZqd4-5">
          <mxGeometry relative="1" as="geometry">
            <Array as="points">
              <mxPoint x="610" y="600" />
              <mxPoint x="610" y="640" />
              <mxPoint x="621" y="640" />
            </Array>
          </mxGeometry>
        </mxCell>
        <mxCell id="lh9dLDWLIg6nByd8DA35-39" style="edgeStyle=orthogonalEdgeStyle;rounded=0;orthogonalLoop=1;jettySize=auto;html=1;exitX=0;exitY=1;exitDx=0;exitDy=0;exitPerimeter=0;entryX=0.06;entryY=0;entryDx=0;entryDy=0;entryPerimeter=0;" edge="1" parent="1" source="Am7dgRR0ZduwFDilZqd4-4" target="lh9dLDWLIg6nByd8DA35-1">
          <mxGeometry relative="1" as="geometry" />
        </mxCell>
        <mxCell id="lh9dLDWLIg6nByd8DA35-41" style="edgeStyle=orthogonalEdgeStyle;rounded=0;orthogonalLoop=1;jettySize=auto;html=1;exitX=0.18;exitY=1;exitDx=0;exitDy=0;exitPerimeter=0;entryX=0.56;entryY=0;entryDx=0;entryDy=0;entryPerimeter=0;" edge="1" parent="1" source="Am7dgRR0ZduwFDilZqd4-4" target="lh9dLDWLIg6nByd8DA35-1">
          <mxGeometry relative="1" as="geometry" />
        </mxCell>
        <mxCell id="lh9dLDWLIg6nByd8DA35-42" style="edgeStyle=orthogonalEdgeStyle;rounded=0;orthogonalLoop=1;jettySize=auto;html=1;exitX=0.27;exitY=1;exitDx=0;exitDy=0;exitPerimeter=0;entryX=0.63;entryY=0;entryDx=0;entryDy=0;entryPerimeter=0;" edge="1" parent="1" source="Am7dgRR0ZduwFDilZqd4-4" target="lh9dLDWLIg6nByd8DA35-1">
          <mxGeometry relative="1" as="geometry" />
        </mxCell>
        <mxCell id="lh9dLDWLIg6nByd8DA35-43" style="edgeStyle=orthogonalEdgeStyle;rounded=0;orthogonalLoop=1;jettySize=auto;html=1;exitX=0.36;exitY=1;exitDx=0;exitDy=0;exitPerimeter=0;entryX=0.69;entryY=0;entryDx=0;entryDy=0;entryPerimeter=0;" edge="1" parent="1" source="Am7dgRR0ZduwFDilZqd4-4" target="lh9dLDWLIg6nByd8DA35-1">
          <mxGeometry relative="1" as="geometry" />
        </mxCell>
        <mxCell id="lh9dLDWLIg6nByd8DA35-44" style="edgeStyle=orthogonalEdgeStyle;rounded=0;orthogonalLoop=1;jettySize=auto;html=1;exitX=0.55;exitY=1;exitDx=0;exitDy=0;exitPerimeter=0;entryX=0.75;entryY=0;entryDx=0;entryDy=0;entryPerimeter=0;" edge="1" parent="1" source="Am7dgRR0ZduwFDilZqd4-4" target="lh9dLDWLIg6nByd8DA35-1">
          <mxGeometry relative="1" as="geometry" />
        </mxCell>
        <mxCell id="lh9dLDWLIg6nByd8DA35-45" style="edgeStyle=orthogonalEdgeStyle;rounded=0;orthogonalLoop=1;jettySize=auto;html=1;exitX=0.64;exitY=1;exitDx=0;exitDy=0;exitPerimeter=0;entryX=0.81;entryY=0;entryDx=0;entryDy=0;entryPerimeter=0;" edge="1" parent="1" source="Am7dgRR0ZduwFDilZqd4-4" target="lh9dLDWLIg6nByd8DA35-1">
          <mxGeometry relative="1" as="geometry" />
        </mxCell>
        <mxCell id="lh9dLDWLIg6nByd8DA35-46" style="edgeStyle=orthogonalEdgeStyle;rounded=0;orthogonalLoop=1;jettySize=auto;html=1;exitX=0.82;exitY=1;exitDx=0;exitDy=0;exitPerimeter=0;entryX=0.88;entryY=0;entryDx=0;entryDy=0;entryPerimeter=0;" edge="1" parent="1" source="Am7dgRR0ZduwFDilZqd4-4" target="lh9dLDWLIg6nByd8DA35-1">
          <mxGeometry relative="1" as="geometry" />
        </mxCell>
        <mxCell id="lh9dLDWLIg6nByd8DA35-51" value="&lt;font style=&quot;font-size: 20px;&quot;&gt;Keypad&lt;/font&gt;" style="whiteSpace=wrap;html=1;aspect=fixed;" vertex="1" parent="1">
          <mxGeometry y="40" width="160" height="160" as="geometry" />
        </mxCell>
      </root>
    </mxGraphModel>
  </diagram>
</mxfile>
